<?xml version="1.0" encoding="UTF-8"?>
<svg id="Layer_1" data-name="Layer 1" xmlns="http://www.w3.org/2000/svg" viewBox="0 0 59.06 59.26">
  <defs>
    <style>
      .cls-1 {
        fill: #0b0d0e;
      }

      .cls-2 {
        fill: #090b0c;
      }

      .cls-3 {
        fill: #0b0d0d;
      }

      .cls-4 {
        fill: #070a0a;
      }

      .cls-5 {
        fill: #0c0e0e;
      }

      .cls-6 {
        fill: #0e1010;
      }

      .cls-7 {
        fill: #070909;
      }

      .cls-8 {
        fill: #090b0b;
      }
    </style>
  </defs>
  <path class="cls-7" d="M30.15,51.52l-30.05-.09c-.63-4.74,1.81-9.17,5.97-11.26l6.83-3.44c2.28-1.15,3.42-3.68,2.19-6.21-.78-1.6-1.3-3.8-2.29-5.2-1.8-2.54-2.17-4.51-1.72-7.57.39-2.69-.72-5.52.04-8.56C12.63,3.14,20.04-1.17,25.89.71c1.41.45,2.04,4.08,4.78,2.38,2.39-1.48,6.54-4.39,9.43-2.44l4.11,2.78c4.02,2.72,4.08,7.37,3.51,11.38-.23,1.61.79,3.01-.33,4.63-1.68,2.46-2.9,5.15-3.41,8.74,7.56.41,13.47,5.65,14.78,12.41,1.48,7.63-2.48,14.71-9.06,17.42-7.12,2.94-15.36.65-19.55-6.49ZM29.06,48.83c-2.26-2.96.38-7.42-.67-9.9-4.29-10.12,2.57-15.41,2.67-17.72l.3-7.46c.09-2.16-.05-4.4-1.06-6.06s-3.03-1.7-4.8-2.77c-1.23-.74-1.74-1.91-3.72-1.6-3.24.5-5.91,2.61-7.15,4.9-1.8,3.32-1.01,6.2-.17,9.54.09.88-1.54,1.98-.75,3.06,2.51,3.45,6.18,11.68,3.62,15.87-2.56,4.19-13.14,4.65-14.26,12.24l26.01-.08ZM41.11,28.3c-.95-2.68,2.55-8.86,3.55-10.2-.94-4.67,2.91-12-3.92-13.04-2.33-2.65-6.23-1.81-8.17.88,2.22,3.44,2.79,7.19,1.29,10.96,1.51,2.92.53,5.68-1.52,7.95-.75.83-.5,2.38-1.2,3.3-1.62,2.13-2.69,4.83-.73,7.52,2.21-4.09,6.04-6.05,10.69-7.37ZM42.77,56.38c7.79.55,14.14-6.35,13.43-13.69-.58-6.09-5.46-10.96-11.55-11.54-7.61-.74-14.43,6.07-13.69,13.69.59,6.02,5.41,11.09,11.8,11.54Z"/>
  <g>
    <path class="cls-7" d="M43.63,49.01c-2.22.13-3.66-.76-4.34-2.99-.15-.49.94-1.07,1.43-1.02.76.07.98.75,1.48,1.48.53.76,1.56.65,2.05.21.69-.61.82-1.54.55-2.51-.2-.7-1.21-1.56-2.25-.78-.6.45-2.06,1.61-2.63.84-.61-1.97.63-3.93.58-6.21,2.11.05,4.17-.26,6.13.17.42.09.26,1.77-.18,1.75-.82-.04-3.88-.22-4.12.31-.17.38-.07,1.68.3,1.46,2.44-1.43,4.36.57,4.79,2.44.58,2.54-1.16,4.7-3.79,4.86Z"/>
    <path class="cls-2" d="M41.36,35.25c-.89.1-1.49-1.98-.73-2.85.51-.58,1.49.39,1.65.86s.09,1.88-.92,1.99Z"/>
    <path class="cls-6" d="M45.57,34.88c-.3.97-.86.15-1.08-.11-.42-.49-.29-1.16-.25-1.96s.94-.66,1.49-.38c.67.34.26,1.13-.15,2.45Z"/>
    <path class="cls-5" d="M49.69,34.82c-.47.57-.29,1.23-.67,1.26-.52.04-1.27.21-1.6-.3-.36-.56.54-.93.61-1.57.1-.86.58-.63.99-.71.73-.14,1.45.38.67,1.32Z"/>
    <path class="cls-7" d="M55.02,40.91c.06.12-2.74.97-2.8.93-.5-.31-.28-.72-.33-.99-.23-1.18,2.44-1.38,2.51-1.25l.63,1.31Z"/>
    <path class="cls-8" d="M35.03,40.99c.39,1.38-.85,1.48-1.54,1.07s-2-.67-.96-1.76c.41-.37,2.34.14,2.49.69Z"/>
    <path class="cls-3" d="M54.31,48.17c-.11,1.17-.98,1.54-1.6.87-.45-.5-1.86-.62-1.03-1.68.61-.78,2.7.05,2.63.81Z"/>
    <path class="cls-7" d="M51.66,52.15c-.94,1.12-1.59-.45-2.04-.73-.78-.48.21-1.91.7-1.69.82.38,2.14,1.49,1.35,2.42Z"/>
    <path class="cls-5" d="M43.12,55.09c-.34-.43-.33-1.73,0-2.17s1.6-.3,1.73.13c.16.52-.08,1.34-.2,1.8-.11.39-1.09.79-1.53.25Z"/>
    <path class="cls-7" d="M38.86,36.04c-.93,1.33-1.58-.34-2.07-.64-.73-.43.29-1.91.78-1.69.68.31,1.63,1.84,1.29,2.32Z"/>
    <path class="cls-7" d="M52.88,36.69c.92.74-2.3,2.05-1.94,1.91-.19.07-.42-.48-.65-.61-.87-.47,2-2.28,1.3-1.91.51-.27.76.18,1.28.6Z"/>
    <path class="cls-1" d="M48.01,54.47c-.93.41-1.04-1.36-1.81-2.07.44-.59,1.32-.42,1.88-.02.53.37,1.25,1.51-.07,2.09Z"/>
    <path class="cls-4" d="M36.41,37.85c.05,1.37-.96,1.59-1.55.84-.5-.63-1.48-1.89-.3-1.9.38,0,1.84.61,1.85,1.06Z"/>
    <path class="cls-5" d="M35.92,48.49c-.06.43-2.09,1.7-2.57.72-.29-.59.41-1.38,1.58-1.64.49-.11,1.1.11.99.92Z"/>
    <path class="cls-8" d="M37.38,52.26c-.89,1.03-2.06.28-1.18-.83.57-.39.2-1.02.65-1.27.48-.27.78.17,1.32.6s0,.6-.78,1.5Z"/>
    <path class="cls-6" d="M41.08,52.89c-.07,1.06.05,1.67-.37,1.74s-1.23.23-1.6-.29.57-.92.66-1.72c.11-.93,1.38-.77,1.31.26Z"/>
    <path class="cls-7" d="M55.05,44.47c.2.81-2.49,1.09-2.55-.08-.04-.8,2.21-1.25,2.55.08Z"/>
    <path class="cls-7" d="M34.57,45.11c.2.81-2.49,1.09-2.55-.08-.04-.8,2.21-1.25,2.55.08Z"/>
  </g>
</svg>